<?xml version="1.0" encoding="UTF-8"?>
<svg id="Layer_2" data-name="Layer 2" xmlns="http://www.w3.org/2000/svg" viewBox="0 0 90.63 90.66">
  <defs>
    <style>
      .cls-1 {
        fill: #131516;
      }
    </style>
  </defs>
  <g id="Layer_1-2" data-name="Layer 1">
    <path class="cls-1" d="m79.95,45.33l2.09-2.09c11.46-11.46,11.46-30.11,0-41.57-.95-.95-2.24-1.49-3.59-1.49h-20.52c-1.35,0-2.64.53-3.59,1.49l-9.02,9.02-2.09-2.09C37.68,3.06,30.3,0,22.44,0S7.21,3.06,1.66,8.61c-.95.95-1.49,2.24-1.49,3.59v20.52c0,1.35.53,2.64,1.49,3.59l9.02,9.02-2.09,2.09c-11.46,11.46-11.46,30.11,0,41.57.95.95,2.24,1.49,3.59,1.49h20.52c1.35,0,2.64-.53,3.59-1.49l9.02-9.02,2.09,2.09c5.55,5.55,12.93,8.61,20.78,8.61s15.23-3.06,20.78-8.61c.95-.95,1.49-2.24,1.49-3.59v-20.52c0-1.35-.53-2.64-1.49-3.59l-9.02-9.02ZM60.03,10.33h16.18c6.13,7.55,5.69,18.71-1.34,25.74l-4.25,4.25-20.21-.05.05-20.36,9.58-9.58ZM10.32,14.44c3.42-2.78,7.66-4.3,12.13-4.3,5.14,0,9.98,2,13.61,5.64l4.25,4.25-.05,20.21-20.36-.05-9.58-9.58V14.44Zm20.29,65.89H14.43c-6.13-7.55-5.69-18.71,1.34-25.74l4.25-4.25,20.21.05-.05,20.36-9.58,9.58Zm49.71-4.11c-3.42,2.78-7.66,4.3-12.13,4.3-5.14,0-9.97-2-13.61-5.64l-4.25-4.25.05-20.21,20.36.05,9.58,9.58v16.18Z"/>
  </g>
</svg>