<?xml version="1.0" encoding="UTF-8"?>
<svg id="Layer_2" data-name="Layer 2" xmlns="http://www.w3.org/2000/svg" viewBox="0 0 864.95 243.19">
  <defs>
    <style>
      .cls-1 {
        fill: #f45252;
      }
    </style>
  </defs>
  <g id="Layer_1-2" data-name="Layer 1">
    <g>
      <path class="cls-1" d="m316.02,200.33h-15.56V43.37h15.56l57.22,138.33,57.22-138.33h15.78v156.96h-15.56v-74.54c0-6.87.03-12.86.11-17.98.07-5.11.14-9.57.22-13.37.07-3.8.18-7.2.33-10.19.14-2.99.36-5.88.66-8.66l-51.08,124.74h-15.13l-51.08-124.08c.44,2.93.77,8.52.99,16.77.22,8.26.33,18.38.33,30.36v76.95Z"/>
      <path class="cls-1" d="m506.31,200.33h-16l57.66-156.96h19.51l58.31,156.96h-16.44l-15.35-41.65h-72.34l-15.35,41.65Zm49.33-134.82l-29.16,79.36h62.48l-29.38-79.36c-.29-1.17-.66-2.34-1.1-3.51-.44-1.17-.73-2.12-.88-2.85-.15.73-.4,1.72-.77,2.96-.37,1.24-.77,2.38-1.21,3.4Z"/>
      <path class="cls-1" d="m685.41,43.37v156.96h-15.78V43.37h15.78Z"/>
      <path class="cls-1" d="m745.47,200.33h-16l57.66-156.96h19.51l58.31,156.96h-16.44l-15.35-41.65h-72.34l-15.35,41.65Zm49.33-134.82l-29.16,79.36h62.48l-29.38-79.36c-.29-1.17-.66-2.34-1.1-3.51-.44-1.17-.73-2.12-.88-2.85-.15.73-.4,1.72-.77,2.96-.37,1.24-.77,2.38-1.21,3.4Z"/>
    </g>
    <path class="cls-1" d="m240.52,128.58l-22.31-45.69-.03-.06c-5.21-10.18-15.54-16.5-26.97-16.5h-14.35v-25.29l-.14-12.95-.03-.42c-1.03-7.85-5.03-14.53-11.9-19.83-6.74-5.2-14.73-7.84-23.76-7.84-4.71,0-8.91.9-12.45,2.67l-45.69,22.31-.06.03c-10.18,5.21-16.5,15.54-16.5,26.97v14.35h-25.29l-12.95.14-.42.03c-7.86,1.03-14.53,5.04-19.83,11.9-5.2,6.74-7.84,14.73-7.84,23.76,0,4.71.9,8.91,2.67,12.45l22.31,45.69.03.06c5.21,10.18,15.54,16.5,26.97,16.5h14.35v25.29l.14,12.95.03.42c1.03,7.86,5.03,14.53,11.9,19.83,6.74,5.2,14.73,7.84,23.76,7.84,4.71,0,8.91-.9,12.45-2.67l45.69-22.31.06-.03c10.18-5.21,16.5-15.54,16.5-26.97v-14.35h25.29l12.95-.14.42-.03c7.86-1.03,14.53-5.04,19.83-11.9,5.2-6.74,7.84-14.73,7.84-23.76,0-4.71-.9-8.91-2.67-12.45Zm-86.16,78.16c-.59,1.45-1.47,2.73-2.68,3.9-1.26,1.23-2.79,2.28-4.56,3.12l-16.52,8.1c-2.59,1.29-5.46,1.94-8.53,1.94h-19.91c-4,0-7.34-1.18-10.22-3.62-2.7-2.29-4.02-4.88-4.02-7.91v-83.4c0-5.95-4.84-10.8-10.8-10.8s-10.8,4.84-10.8,10.8v26.37h-25.26c-1.64,0-3.15-.29-4.63-.9-1.45-.59-2.73-1.47-3.9-2.68-1.23-1.26-2.28-2.79-3.12-4.56l-8.1-16.52c-1.29-2.59-1.94-5.46-1.94-8.53v-19.92c0-4,1.18-7.34,3.62-10.22,2.29-2.7,4.88-4.02,7.91-4.02h83.4c5.95,0,10.8-4.84,10.8-10.8s-4.84-10.8-10.8-10.8h-26.37v-25.26c0-1.64.29-3.15.9-4.63.59-1.45,1.47-2.73,2.68-3.9,1.26-1.23,2.79-2.28,4.56-3.12l16.53-8.1c2.59-1.29,5.46-1.94,8.53-1.94h19.91c4,0,7.34,1.18,10.22,3.62,2.7,2.29,4.02,4.88,4.02,7.91v83.4c0,5.95,4.84,10.8,10.8,10.8s10.8-4.84,10.8-10.8v-26.37h25.26c1.64,0,3.15.29,4.63.9,1.45.59,2.73,1.47,3.9,2.68,1.23,1.27,2.28,2.79,3.12,4.56l8.1,16.53c1.29,2.59,1.94,5.46,1.94,8.53v19.92c0,4-1.18,7.34-3.62,10.22-2.29,2.7-4.88,4.01-7.91,4.01h-83.4c-5.95,0-10.8,4.84-10.8,10.8s4.84,10.8,10.8,10.8h26.37v25.26c0,1.64-.29,3.15-.9,4.63Z"/>
  </g>
</svg>