<?xml version="1.0" encoding="UTF-8"?>
<svg id="Layer_2" data-name="Layer 2" xmlns="http://www.w3.org/2000/svg" viewBox="0 0 271.05 65.59">
  <defs>
    <style>
      .cls-1 {
        fill: #ff540a;
      }
    </style>
  </defs>
  <g id="Layer_1-2" data-name="Layer 1">
    <g>
      <g>
        <path class="cls-1" d="m89.72,60.92V6.45h15.8l11.91,48.87h1.25l11.91-48.87h15.8v54.48h-8.17V12.36h-1.25l-11.83,48.56h-14.16l-11.83-48.56h-1.25v48.56h-8.17Z"/>
        <path class="cls-1" d="m154.55,60.92l15.56-54.48h14.79l15.49,54.48h-8.64l-3.58-12.84h-21.32l-3.58,12.84h-8.72Zm14.4-20.62h17.12l-7.94-28.64h-1.25l-7.94,28.64Z"/>
        <path class="cls-1" d="m208.63,60.92V6.45h8.4v54.48h-8.4Z"/>
        <path class="cls-1" d="m225.21,60.92l15.56-54.48h14.79l15.49,54.48h-8.64l-3.58-12.84h-21.32l-3.58,12.84h-8.72Zm14.4-20.62h17.12l-7.94-28.64h-1.25l-7.94,28.64Z"/>
      </g>
      <path class="cls-1" d="m57.84,32.8l1.51-1.51c8.29-8.29,8.29-21.78,0-30.08-.69-.69-1.62-1.07-2.6-1.07h-14.85c-.97,0-1.91.39-2.59,1.07l-6.53,6.53-1.51-1.51C27.26,2.21,21.92,0,16.24,0S5.22,2.21,1.2,6.23c-.69.69-1.07,1.62-1.07,2.6v14.85c0,.97.39,1.91,1.07,2.6l6.53,6.53-1.51,1.51c-8.29,8.29-8.29,21.78,0,30.08.69.69,1.62,1.07,2.59,1.07h14.85c.97,0,1.91-.39,2.59-1.07l6.53-6.53,1.51,1.51c4.02,4.02,9.36,6.23,15.04,6.23s11.02-2.21,15.04-6.23c.69-.69,1.07-1.62,1.07-2.6v-14.85c0-.97-.39-1.91-1.07-2.6l-6.53-6.53Zm-14.41-25.32h11.7c4.44,5.46,4.11,13.54-.97,18.62l-3.07,3.07-14.63-.03.03-14.73,6.93-6.93ZM7.47,10.45c2.47-2.01,5.54-3.11,8.77-3.11,3.72,0,7.22,1.45,9.85,4.08l3.07,3.07-.03,14.63-14.73-.03-6.93-6.93v-11.7Zm14.68,47.67h-11.7c-4.44-5.46-4.12-13.54.97-18.62l3.07-3.07,14.63.03-.03,14.73-6.93,6.93Zm35.96-2.97c-2.47,2.01-5.54,3.11-8.77,3.11-3.72,0-7.22-1.45-9.85-4.08l-3.07-3.07.03-14.63,14.73.03,6.93,6.93v11.7Z"/>
    </g>
  </g>
</svg>