<?xml version="1.0" encoding="UTF-8"?>
<svg id="Layer_2" data-name="Layer 2" xmlns="http://www.w3.org/2000/svg" viewBox="0 0 439.3 400.22">
  <g id="Layer_1-2" data-name="Layer 1">
    <g>
      <path d="m73.29,359.35L0,214.55v-44.42L71.07,40.87,93.72,0h123.04l-8.88,62.19-75.51,135.93,83.95,157.69-8.88,44.42h-109.27l-24.87-40.87Zm120.82-16.88l-88.84-167.02L194.11,13.33h-92.39L15.1,170.57l86.62,171.9h92.39Z"/>
      <path d="m222.54,355.8l84.4-153.69L231.86,62.19,222.98,0h122.6l21.32,42.64,72.4,143.03v44.42l-71.52,129.7-31.09,40.42h-105.27l-8.88-44.42Zm115.05-13.33l86.62-157.25L337.58,13.33h-92.39l88.84,167.02-88.84,162.13h92.39Z"/>
    </g>
  </g>
</svg>